#N canvas 504 23 756 426 10;
#X obj 33 82 gemhead;
#X floatatom 61 279 5 0 0 0 - - -, f 5;
#X floatatom 96 279 5 0 0 0 - - -, f 5;
#X floatatom 132 279 5 0 0 0 - - -, f 5;
#X floatatom 101 237 5 0 0 0 - - -, f 5;
#X floatatom 149 237 5 0 0 0 - - -, f 5;
#X floatatom 198 237 5 0 0 0 - - -, f 5;
#X obj 33 300 rotateXYZ 0 0 0;
#X obj 33 257 translateXYZ -2.5 -2.5 -2;
#X obj 43 340 r curve3d;
#X obj 33 365 curve3d 5 5;
#X floatatom 470 115 5 0 0 0 - - -, f 5;
#X floatatom 503 115 5 0 0 0 - - -, f 5;
#N canvas 0 22 173 130 pak 0;
#X obj 73 39 t b f;
#X obj 108 39 t b f;
#X obj 38 19 inlet;
#X obj 38 69 pack f f f;
#X obj 38 90 outlet;
#X obj 73 19 inlet;
#X obj 108 19 inlet;
#X connect 0 0 3 0;
#X connect 0 1 3 1;
#X connect 1 0 3 0;
#X connect 1 1 3 2;
#X connect 2 0 3 0;
#X connect 3 0 4 0;
#X connect 5 0 0 0;
#X connect 6 0 1 0;
#X restore 470 135 pd pak f f f;
#X floatatom 537 115 5 0 0 0 - - -, f 5;
#X msg 519 35 draw line;
#X msg 519 15 draw fill;
#X obj 594 7 cnv 15 150 150 empty empty empty 20 12 0 14 -24198 -66577
0;
#X obj 594 167 cnv 15 150 150 empty empty empty 20 12 0 14 -24198 -66577
0;
#X msg 632 44 res 2 2;
#X msg 632 65 res 3 3;
#X msg 627 223 grid 10 10;
#X msg 627 265 grid 40 40;
#X msg 632 86 res 5 5;
#X msg 632 107 res 1 4;
#X msg 627 244 grid 20 20;
#X obj 608 131 s curve3d;
#X obj 605 289 s curve3d;
#X text 607 24 control matrix;
#X text 602 11 resolution of the;
#X text 603 172 resolution of the;
#X text 624 183 curve grid;
#X obj 519 71 s curve3d;
#X obj 470 190 s curve3d;
#X obj 471 263 s curve3d;
#X msg 627 202 grid 5 5;
#X msg 470 157 set 0 0 \$1 \$2 \$3;
#X obj 33 194 pix_texture;
#N canvas 0 22 587 366 image 0;
#X obj 77 48 inlet;
#X obj 77 344 outlet;
#X obj 77 205 pix_image examples/data/fractal.JPG;
#X obj 223 55 inlet;
#X msg 223 123 open \$1;
#X obj 223 100 openpanel;
#X text 312 85 re-send the image to the [pix_]-object;
#X text 231 37 open;
#X text 79 30 gemlist, f 13;
#X connect 0 0 2 0;
#X connect 2 0 1 0;
#X connect 3 0 5 0;
#X connect 4 0 2 0;
#X connect 5 0 4 0;
#X restore 143 123 pd image;
#X floatatom 296 237 4 0 0 1 width - -, f 4;
#X floatatom 309 219 4 0 0 1 height - -, f 4;
#X floatatom 322 201 4 0 0 1 bytes/pixel - -, f 4;
#X floatatom 336 184 5 0 0 1 coulorspace - -, f 5;
#X obj 283 163 pix_info . . . .;
#X obj 143 146 pix_resize 640 640;
#X msg 259 111 dimen 640 640;
#X msg 359 111 dimen 280 280;
#X obj 206 89 bng 15 250 50 0 empty empty pix_load 20 8 0 8 -262144
-1 -1;
#X obj 33 3 cnv 15 100 60 empty empty empty 20 12 0 14 -195568 -66577
0;
#N canvas 617 32 450 300 gemwin 0;
#X obj 132 136 gemwin;
#X obj 67 89 outlet;
#X obj 67 10 inlet;
#X obj 67 41 route create;
#X msg 67 70 set destroy;
#X msg 142 68 set create;
#X msg 198 112 destroy;
#X msg 132 112 create \, 1;
#X obj 171 11 inlet;
#X connect 2 0 3 0;
#X connect 3 0 4 0;
#X connect 3 0 7 0;
#X connect 3 1 5 0;
#X connect 3 1 6 0;
#X connect 4 0 1 0;
#X connect 5 0 1 0;
#X connect 6 0 0 0;
#X connect 7 0 0 0;
#X connect 8 0 0 0;
#X restore 38 42 pd gemwin;
#X msg 38 23 destroy;
#X text 34 2 Create window:;
#X msg 140 25 dimen 640 640;
#N canvas 354 416 298 305 movie 0;
#X obj 141 44 bng 25 250 50 0 empty empty empty 0 -6 0 8 -262144 -1
-1;
#X obj 106 219 bng 15 250 50 0 empty empty end_reached 20 7 0 10 -262144
-1 -1;
#X floatatom 88 184 5 0 10000 1 frame# - -, f 5;
#X obj 141 73 openpanel;
#X msg 141 93 open \$1;
#X obj 37 202 pix_film;
#X msg 87 75 auto \$1;
#X obj 87 57 tgl 15 0 empty empty empty 0 -6 0 8 -262144 -1 -1 0 1
;
#X msg 66 160 colorspace Grey;
#X obj 87 14 inlet;
#X obj 141 14 inlet;
#X obj 37 254 outlet;
#X obj 37 14 inlet;
#X msg 106 240 0;
#X connect 0 0 3 0;
#X connect 1 0 13 0;
#X connect 2 0 5 1;
#X connect 3 0 4 0;
#X connect 4 0 5 0;
#X connect 5 0 11 0;
#X connect 5 2 1 0;
#X connect 6 0 5 0;
#X connect 7 0 6 0;
#X connect 8 0 5 0;
#X connect 9 0 7 0;
#X connect 10 0 0 0;
#X connect 12 0 5 0;
#X connect 13 0 2 0;
#X restore 33 146 pd movie;
#X obj 55 123 tgl 15 0 empty empty empty 17 7 0 10 -262144 -1 -1 0
1;
#X obj 78 123 bng 15 250 50 0 empty empty empty 17 7 0 10 -262144 -1
-1;
#X obj 471 214 bng 15 250 50 0 empty empty empty 17 7 0 10 -262144
-1 -1;
#N canvas 535 258 697 499 forme 0;
#X obj 76 418 outlet;
#X msg 28 114 set 0 0 0 0 0;
#X msg 126 115 set 0 1 0 1 0;
#X msg 227 116 set 0 2 0 2 0;
#X msg 323 117 set 0 3 0 3 0;
#X msg 419 116 set 0 4 0 4 0;
#X msg 47 159 set 1 0 1 0 0;
#X msg 145 160 set 1 1 1 1 0;
#X msg 246 161 set 1 2 1 2 0;
#X msg 342 162 set 1 3 1 3 0;
#X msg 438 161 set 1 4 1 4 0;
#X msg 68 202 set 2 0 2 0 0;
#X msg 166 203 set 2 1 2 1 0;
#X msg 267 204 set 2 2 2 2 0;
#X msg 363 205 set 2 3 2 3 0;
#X msg 459 204 set 2 4 2 4 0;
#X msg 97 249 set 3 0 3 0 0;
#X msg 195 250 set 3 1 3 1 0;
#X msg 297 251 set 3 2 3 2 0;
#X msg 393 252 set 3 3 3 3 0;
#X msg 488 251 set 3 4 3 4 0;
#X msg 121 296 set 4 0 4 0 0;
#X msg 219 297 set 4 1 4 1 0;
#X msg 320 298 set 4 2 4 2 0;
#X msg 416 299 set 4 3 4 3 0;
#X msg 512 298 set 4 4 4 4 0;
#X obj 28 16 inlet;
#X connect 1 0 0 0;
#X connect 2 0 0 0;
#X connect 3 0 0 0;
#X connect 4 0 0 0;
#X connect 5 0 0 0;
#X connect 6 0 0 0;
#X connect 7 0 0 0;
#X connect 8 0 0 0;
#X connect 9 0 0 0;
#X connect 10 0 0 0;
#X connect 11 0 0 0;
#X connect 12 0 0 0;
#X connect 13 0 0 0;
#X connect 14 0 0 0;
#X connect 15 0 0 0;
#X connect 16 0 0 0;
#X connect 17 0 0 0;
#X connect 18 0 0 0;
#X connect 19 0 0 0;
#X connect 20 0 0 0;
#X connect 21 0 0 0;
#X connect 22 0 0 0;
#X connect 23 0 0 0;
#X connect 24 0 0 0;
#X connect 25 0 0 0;
#X connect 26 0 1 0;
#X connect 26 0 6 0;
#X connect 26 0 11 0;
#X connect 26 0 16 0;
#X connect 26 0 21 0;
#X connect 26 0 2 0;
#X connect 26 0 7 0;
#X connect 26 0 12 0;
#X connect 26 0 17 0;
#X connect 26 0 22 0;
#X connect 26 0 3 0;
#X connect 26 0 8 0;
#X connect 26 0 13 0;
#X connect 26 0 18 0;
#X connect 26 0 23 0;
#X connect 26 0 4 0;
#X connect 26 0 9 0;
#X connect 26 0 14 0;
#X connect 26 0 19 0;
#X connect 26 0 24 0;
#X connect 26 0 5 0;
#X connect 26 0 10 0;
#X connect 26 0 15 0;
#X connect 26 0 20 0;
#X connect 26 0 25 0;
#X restore 471 240 pd forme 5-5;
#X connect 0 0 38 0;
#X connect 1 0 7 1;
#X connect 2 0 7 2;
#X connect 3 0 7 3;
#X connect 4 0 8 1;
#X connect 5 0 8 2;
#X connect 6 0 8 3;
#X connect 7 0 10 0;
#X connect 8 0 7 0;
#X connect 9 0 10 0;
#X connect 11 0 13 0;
#X connect 12 0 13 1;
#X connect 13 0 36 0;
#X connect 14 0 13 2;
#X connect 15 0 32 0;
#X connect 16 0 32 0;
#X connect 19 0 26 0;
#X connect 20 0 26 0;
#X connect 21 0 27 0;
#X connect 22 0 27 0;
#X connect 23 0 26 0;
#X connect 24 0 26 0;
#X connect 25 0 27 0;
#X connect 35 0 27 0;
#X connect 36 0 33 0;
#X connect 37 0 8 0;
#X connect 38 0 44 0;
#X connect 43 1 39 0;
#X connect 43 2 40 0;
#X connect 43 3 41 0;
#X connect 43 4 42 0;
#X connect 44 0 43 0;
#X connect 44 0 37 0;
#X connect 45 0 44 0;
#X connect 46 0 44 0;
#X connect 47 0 38 1;
#X connect 49 0 50 0;
#X connect 50 0 49 0;
#X connect 52 0 49 1;
#X connect 54 0 53 1;
#X connect 55 0 53 2;
#X connect 56 0 57 0;
#X connect 57 0 34 0;
