#N canvas 554 23 469 79 10;
#N canvas 109 119 870 354 delay-time-calculator 0;
#X obj 0 1 cnv 15 450 70 empty empty empty 20 12 0 14 -233017 -66577
0;
#X floatatom 5 16 5 0 0 2 BPM - -, f 5;
#X obj 548 79 / 120;
#X msg 548 57 60000;
#X obj 548 30 t b f;
#X floatatom 186 15 8 0 0 2 quarter - -, f 8;
#X obj 533 96 * 2;
#X obj 493 96 * 4;
#X floatatom 77 15 8 0 0 2 whole - -, f 8;
#X floatatom 131 15 8 0 0 2 half - -, f 8;
#X floatatom 241 15 8 0 0 2 eighth - -, f 8;
#X floatatom 295 15 8 0 0 2 sixteenth - -, f 8;
#X obj 611 96 / 2;
#X obj 671 96 / 4;
#X floatatom 352 15 8 0 0 2 thirty-second - -, f 8;
#X obj 731 96 / 8;
#X obj 443 190 * 1.5;
#X floatatom 77 33 8 0 0 0 - - -, f 8;
#X obj 483 190 * 1.5;
#X floatatom 131 33 8 0 0 0 - - -, f 8;
#X obj 548 190 * 1.5;
#X floatatom 186 33 8 0 0 0 - - -, f 8;
#X obj 611 190 * 1.5;
#X floatatom 241 33 8 0 0 0 - - -, f 8;
#X obj 671 190 * 1.5;
#X floatatom 295 33 8 0 0 0 - - -, f 8;
#X obj 731 190 * 1.5;
#X floatatom 352 33 8 0 0 0 - - -, f 8;
#X text 3 33 dotted note;
#X obj 463 259 * 1.3333;
#X floatatom 131 51 8 0 0 0 - - -, f 8;
#X floatatom 186 52 8 0 0 0 - - -, f 8;
#X obj 548 260 * 0.6666;
#X floatatom 241 52 8 0 0 0 - - -, f 8;
#X obj 611 260 * 0.3333;
#X floatatom 295 52 8 0 0 0 - - -, f 8;
#X obj 671 260 * 0.1666;
#X text 27 51 triplet;
#X connect 1 0 4 0;
#X connect 2 0 5 0;
#X connect 2 0 6 0;
#X connect 2 0 7 0;
#X connect 2 0 12 0;
#X connect 2 0 13 0;
#X connect 2 0 15 0;
#X connect 2 0 29 0;
#X connect 2 0 32 0;
#X connect 2 0 34 0;
#X connect 2 0 36 0;
#X connect 3 0 2 0;
#X connect 4 0 3 0;
#X connect 4 1 2 1;
#X connect 5 0 20 0;
#X connect 6 0 9 0;
#X connect 7 0 8 0;
#X connect 8 0 16 0;
#X connect 9 0 18 0;
#X connect 10 0 22 0;
#X connect 11 0 24 0;
#X connect 12 0 10 0;
#X connect 13 0 11 0;
#X connect 14 0 26 0;
#X connect 15 0 14 0;
#X connect 16 0 17 0;
#X connect 18 0 19 0;
#X connect 20 0 21 0;
#X connect 22 0 23 0;
#X connect 24 0 25 0;
#X connect 26 0 27 0;
#X connect 29 0 30 0;
#X connect 32 0 31 0;
#X connect 34 0 33 0;
#X connect 36 0 35 0;
#X coords 0 -1 1 1 450 70 2 0 0;
#X restore 2 0 pd delay-time-calculator;
