#N canvas 813 499 174 102 10;
#N canvas 0 22 508 234 contents 0;
#X msg 23 100 C;
#X msg 53 100 C#;
#X obj 23 51 mod 12;
#X obj 23 128 prepend set;
#X msg 84 100 D;
#X msg 114 100 D#;
#X msg 145 100 E;
#X msg 175 100 F;
#X msg 206 100 F#;
#X msg 236 100 G;
#X msg 266 100 G#;
#X msg 296 100 A;
#X msg 327 100 A#;
#X msg 357 100 B;
#X obj 23 75 sel 0 1 2 3 4 5 6 7 8 9 10 11;
#X obj 417 42 mtof;
#X obj 23 150 outlet;
#X obj 23 25 inlet;
#X obj 417 144 outlet;
#X connect 0 0 3 0;
#X connect 1 0 3 0;
#X connect 2 0 14 0;
#X connect 3 0 16 0;
#X connect 4 0 3 0;
#X connect 5 0 3 0;
#X connect 6 0 3 0;
#X connect 7 0 3 0;
#X connect 8 0 3 0;
#X connect 9 0 3 0;
#X connect 10 0 3 0;
#X connect 11 0 3 0;
#X connect 12 0 3 0;
#X connect 13 0 3 0;
#X connect 14 0 0 0;
#X connect 14 1 1 0;
#X connect 14 2 4 0;
#X connect 14 3 5 0;
#X connect 14 4 6 0;
#X connect 14 5 7 0;
#X connect 14 6 8 0;
#X connect 14 7 9 0;
#X connect 14 8 10 0;
#X connect 14 9 11 0;
#X connect 14 10 12 0;
#X connect 14 11 13 0;
#X connect 15 0 18 0;
#X connect 17 0 2 0;
#X connect 17 0 15 0;
#X restore 23 46 pd contents;
#X floatatom 23 28 5 0 127 2 MIDI_Note_Number - -, f 5;
#X msg 23 68 C;
#X floatatom 86 70 8 0 0 1 Hz - -, f 8;
#X connect 0 0 2 0;
#X connect 0 1 3 0;
#X connect 1 0 0 0;
