#N canvas 450 189 331 361 10;
#X obj 38 317 dac~;
#X floatatom 152 102 5 0 0 0 - - -;
#X obj 225 155 expr 1-$f1;
#X obj 38 256 *~;
#X obj 81 256 *~;
#X obj 38 287 hip~ 5;
#X obj 81 287 hip~ 5;
#X obj 218 256 tgl 15 0 empty empty on/off 0 -6 0 8 -262144 -1 -258699
0 1;
#X msg 218 294 \; pd dsp \$1;
#X obj 40 92 osc~ 441;
#X obj 152 128 * 0.01;
#X obj 155 60 hsl 128 30 100 0 0 0 empty empty empty -2 -8 0 10 -262144
-1 -1 0 1;
#X obj 225 203 line~;
#X obj 153 203 line~;
#X obj 153 181 pack 0 100;
#X obj 225 181 pack 0 100;
#X text 199 339 by Junya Nakajima;
#X connect 1 0 10 0;
#X connect 2 0 15 0;
#X connect 3 0 5 0;
#X connect 4 0 6 0;
#X connect 5 0 0 0;
#X connect 6 0 0 1;
#X connect 7 0 8 0;
#X connect 9 0 3 0;
#X connect 9 0 4 0;
#X connect 10 0 2 0;
#X connect 10 0 14 0;
#X connect 11 0 1 0;
#X connect 12 0 4 1;
#X connect 13 0 3 1;
#X connect 14 0 13 0;
#X connect 15 0 12 0;
