#N canvas 180 108 785 542 10;
#X obj 280 92 bng 15 250 50 0 empty empty empty 17 7 0 10 -262144 -1
-1;
#X obj 122 92 bng 15 250 50 0 empty empty empty 17 7 0 10 -262144 -1
-1;
#X obj 122 113 random 127;
#X floatatom 122 135 5 0 0 0 - - -, f 5;
#X obj 122 152 expr if($i1 < 64 \, 0 \, 1);
#X obj 122 173 sel 1;
#X obj 122 193 random 7;
#X obj 122 215 + 1;
#X floatatom 280 173 5 0 0 0 - - -, f 5;
#X obj 280 113 random 127;
#X floatatom 280 134 5 0 0 0 - - -, f 5;
#X obj 280 151 expr if($i1 < 22 \, -1 \, if($i1 > 106 \, 1 \, 0));
#X obj 283 227 bng 15 250 50 0 empty empty empty 17 7 0 10 -262144
-1 -1;
#X obj 283 248 random 127;
#X floatatom 283 269 5 0 0 0 - - -, f 5;
#X text 151 92 for note;
#X text 304 92 for octarve;
#X obj 283 308 sel 1 2 3;
#X obj 283 332 random 127;
#X floatatom 283 423 5 0 0 0 - - -, f 5;
#X obj 429 332 random 127;
#X obj 576 332 random 127;
#X obj 283 354 expr if($i1 < 48 \, 0 \, 1);
#X obj 429 354 expr if($i1 < 64 \, 2 \, 3);
#X obj 576 354 expr if($i1 < 80 \, 4 \, 5);
#X obj 283 286 expr if($i1 < 16 \, 1 \, if($i1 > 112 \, 3 \, 2));
#X text 353 248 for a whole note;
#X obj 186 193 bng 15 250 50 0 empty empty empty 17 7 0 10 -262144
-1 -1;
#X floatatom 122 237 5 0 0 0 - - -, f 5;
#X obj 122 256 print;
#X text 485 424 By Junya Nakajima;
#X connect 0 0 9 0;
#X connect 1 0 2 0;
#X connect 2 0 3 0;
#X connect 3 0 4 0;
#X connect 4 0 5 0;
#X connect 5 0 6 0;
#X connect 5 1 27 0;
#X connect 6 0 7 0;
#X connect 7 0 28 0;
#X connect 9 0 10 0;
#X connect 10 0 11 0;
#X connect 11 0 8 0;
#X connect 12 0 13 0;
#X connect 13 0 14 0;
#X connect 14 0 25 0;
#X connect 17 0 18 0;
#X connect 17 1 20 0;
#X connect 17 2 21 0;
#X connect 18 0 22 0;
#X connect 20 0 23 0;
#X connect 21 0 24 0;
#X connect 22 0 19 0;
#X connect 23 0 19 0;
#X connect 24 0 19 0;
#X connect 25 0 17 0;
#X connect 27 0 28 0;
#X connect 28 0 29 0;
