#N canvas 437 55 613 531 10;
#X obj 244 263 soundfiler;
#X obj 59 175 dac~;
#X obj 59 116 tabplay~ sample1;
#X obj 59 66 bng 15 250 50 0 empty empty empty 17 7 0 10 -262144 -1
-1;
#X obj 244 208 openpanel;
#X obj 244 66 bng 15 250 50 0 empty empty empty 17 7 0 10 -262144 -1
-1;
#N canvas 0 22 450 300 (subpatch) 0;
#X array sample1 1.5676e+06 float 2;
#X coords 0 1 1.5676e+06 -1 200 140 1;
#X restore 374 63 graph;
#X msg 244 237 read -resize \$1 sample1;
#X msg 118 66 stop;
#X msg 244 312 set \$1;
#X msg 243 334 24493.8;
#X obj 59 237 bng 15 250 50 0 empty empty empty 17 7 0 10 -262144 -1
-1;
#X floatatom 58 327 5 0 0 0 - - -;
#X obj 58 472 pack 0 0;
#X obj 244 291 / 64;
#X obj 58 350 *;
#X msg 302 312 set \$1;
#X msg 302 334 1.5676e+06;
#X obj 137 237 bng 15 250 50 0 empty empty empty 17 7 0 10 -262144
-1 -1;
#X obj 136 396 *;
#X obj 121 420 +;
#X obj 58 373 expr if($f1 < $f2 \, $f1 \, $f2-$f1);
#X obj 110 443 expr if($f1 < $f2 \, $f2 \, $f2*2);
#X obj 58 395 t a a a;
#X obj 163 66 bng 15 250 50 0 empty empty empty 17 7 0 10 -262144 -1
-1;
#X obj 137 261 random 3;
#X obj 59 281 + 1;
#X obj 137 283 + 1;
#X obj 58 443 pipe 50;
#X obj 352 314 bng 15 250 50 0 empty empty empty 17 7 0 10 -262144
-1 -1;
#X obj 352 291 pipe 500;
#X obj 59 145 hip~ 5;
#X obj 59 260 random 21;
#X obj 59 303 * 3;
#X text 266 65 1 Load File;
#X text 184 65 2 Play;
#X text 59 46 all play;
#X text 449 479 by Junya Nakajima;
#X obj 58 493 s loop_point;
#X obj 59 93 r loop_point;
#X obj 59 214 t b b;
#X obj 356 414 cnv 15 200 60 empty empty Random_Player 10 20 0 24 -233017
-66577 0;
#X connect 0 0 14 0;
#X connect 0 0 16 0;
#X connect 0 0 30 0;
#X connect 2 0 31 0;
#X connect 2 1 40 0;
#X connect 3 0 2 0;
#X connect 4 0 7 0;
#X connect 5 0 4 0;
#X connect 7 0 0 0;
#X connect 8 0 2 0;
#X connect 9 0 10 0;
#X connect 10 0 15 1;
#X connect 10 0 19 1;
#X connect 11 0 32 0;
#X connect 12 0 15 0;
#X connect 13 0 38 0;
#X connect 14 0 9 0;
#X connect 15 0 21 0;
#X connect 16 0 17 0;
#X connect 17 0 21 1;
#X connect 18 0 25 0;
#X connect 19 0 20 1;
#X connect 20 0 22 1;
#X connect 21 0 23 0;
#X connect 22 0 13 1;
#X connect 23 0 28 0;
#X connect 23 1 22 0;
#X connect 23 2 20 0;
#X connect 24 0 40 0;
#X connect 25 0 27 0;
#X connect 26 0 33 0;
#X connect 27 0 19 0;
#X connect 28 0 13 0;
#X connect 29 0 10 0;
#X connect 29 0 17 0;
#X connect 30 0 29 0;
#X connect 31 0 1 0;
#X connect 31 0 1 1;
#X connect 32 0 26 0;
#X connect 33 0 12 0;
#X connect 39 0 2 0;
#X connect 40 0 11 0;
#X connect 40 1 18 0;
#X coords 0 0 1 1 100 60 0;
