#N canvas 647 25 535 602 10;
#X obj 233 46 cnv 15 100 60 empty empty empty 20 12 0 14 -195568 -66577
0;
#N canvas 617 32 450 300 gemwin 0;
#X obj 132 136 gemwin;
#X obj 67 89 outlet;
#X obj 67 10 inlet;
#X obj 67 41 route create;
#X msg 67 70 set destroy;
#X msg 142 68 set create;
#X msg 198 112 destroy;
#X msg 132 112 create \, 1;
#X obj 171 11 inlet;
#X connect 2 0 3 0;
#X connect 3 0 4 0;
#X connect 3 0 7 0;
#X connect 3 1 5 0;
#X connect 3 1 6 0;
#X connect 4 0 1 0;
#X connect 5 0 1 0;
#X connect 6 0 0 0;
#X connect 7 0 0 0;
#X connect 8 0 0 0;
#X restore 238 85 pd gemwin;
#X msg 238 66 destroy;
#X text 234 45 Create window:;
#X msg 341 69 lighting \$1;
#X obj 341 47 tgl 15 0 empty empty empty 0 -6 0 8 -262144 -1 -1 0 1
;
#X obj 33 176 tgl 15 0 empty empty empty 17 7 0 10 -262144 -1 -1 0
1;
#X obj 33 195 gemhead;
#X obj 33 571 rectangle 4 3;
#X obj 33 234 glsl_fragment;
#X obj 108 331 change;
#X floatatom 108 357 5 0 0 0 - - -, f 5;
#X obj 90 407 pack 0 0;
#X obj 108 380 t b f;
#X msg 90 433 link \$1 \$2;
#X obj 33 501 glsl_program;
#X msg 175 484 time \$1;
#X obj 286 196 openpanel;
#X msg 286 217 open \$1;
#X obj 286 176 bng 15 250 50 0 empty empty open_Fragment_Shader 17
7 0 10 -262144 -1 -1;
#X obj 175 395 metro 100;
#X obj 226 370 * 1000;
#X obj 175 441 f 0;
#X obj 203 441 + 1;
#X floatatom 192 464 5 0 0 0 - - -, f 5;
#X msg 195 371 0;
#X obj 200 421 print;
#X obj 226 346 /;
#X msg 226 325 1;
#X obj 226 301 t b f;
#X msg 143 68 frame \$1;
#X obj 12 41 nbx 4 20 100 1980 0 1 empty empty Window_Size 0 -8 0 14
-262144 -1 -1 640 256;
#X obj 143 41 nbx 4 20 1 60 0 1 empty empty FPS 0 -8 0 14 -262144 -1
-1 60 256;
#X obj 78 41 nbx 4 20 100 1980 0 1 empty empty empty 0 -8 0 14 -262144
-1 -1 480 256;
#N canvas 0 22 173 130 pak 0;
#X obj 73 39 t b f;
#X obj 38 19 inlet;
#X obj 38 90 outlet;
#X obj 73 19 inlet;
#X obj 38 69 pack f f;
#X connect 0 0 4 0;
#X connect 0 1 4 1;
#X connect 1 0 4 0;
#X connect 3 0 0 0;
#X connect 4 0 2 0;
#X restore 12 65 pd pak f f;
#X msg 19 85 dimen \$1 \$2;
#X msg 24 469 resolution \$1 \$2;
#X obj 282 7 loadbang;
#X obj 233 5 bng 15 250 50 0 empty empty empty 17 7 0 10 -262144 -1
-1;
#X floatatom 113 557 5 0 0 2 width - -, f 5;
#X floatatom 151 557 5 0 0 2 height - -, f 5;
#X obj 175 371 bng 15 250 50 0 empty empty empty 17 7 0 10 -262144
-1 -1;
#X obj 233 24 t b b;
#X obj 12 540 unpack f f;
#X msg 22 265 set \$1 \$2;
#X msg 22 292 640 480;
#X obj 156 275 del 50;
#X obj 156 245 t b b b;
#X msg 288 484 inputval1 \$1;
#X msg 378 484 inputval2 \$1;
#X obj 284 382 vsl 15 96 0 200 0 0 empty empty empty 0 -9 0 10 -262144
-1 -1 0 1;
#X obj 378 382 vsl 15 96 0 10 0 0 empty empty empty 0 -9 0 10 -262144
-1 -1 0 1;
#X connect 1 0 2 0;
#X connect 2 0 1 0;
#X connect 4 0 1 1;
#X connect 5 0 4 0;
#X connect 6 0 7 0;
#X connect 7 0 9 0;
#X connect 9 0 15 0;
#X connect 9 1 10 0;
#X connect 10 0 11 0;
#X connect 11 0 13 0;
#X connect 12 0 14 0;
#X connect 13 0 12 0;
#X connect 13 1 12 1;
#X connect 14 0 15 0;
#X connect 15 0 8 0;
#X connect 16 0 15 0;
#X connect 17 0 18 0;
#X connect 18 0 9 0;
#X connect 18 0 47 0;
#X connect 19 0 17 0;
#X connect 20 0 22 0;
#X connect 21 0 20 1;
#X connect 22 0 23 0;
#X connect 22 0 24 0;
#X connect 22 0 16 0;
#X connect 23 0 22 1;
#X connect 25 0 23 0;
#X connect 25 0 20 0;
#X connect 27 0 21 0;
#X connect 27 0 23 1;
#X connect 28 0 27 0;
#X connect 29 0 28 0;
#X connect 29 1 27 1;
#X connect 30 0 1 1;
#X connect 31 0 34 0;
#X connect 32 0 30 0;
#X connect 32 0 29 0;
#X connect 33 0 34 1;
#X connect 34 0 35 0;
#X connect 34 0 36 0;
#X connect 34 0 43 0;
#X connect 34 0 44 0;
#X connect 35 0 1 1;
#X connect 36 0 15 0;
#X connect 37 0 42 0;
#X connect 38 0 42 0;
#X connect 39 0 8 1;
#X connect 40 0 8 2;
#X connect 41 0 20 0;
#X connect 42 0 31 0;
#X connect 42 1 32 0;
#X connect 43 0 39 0;
#X connect 43 1 40 0;
#X connect 44 0 45 0;
#X connect 45 0 36 0;
#X connect 46 0 45 0;
#X connect 47 0 46 0;
#X connect 47 1 41 0;
#X connect 47 2 25 0;
#X connect 48 0 15 0;
#X connect 49 0 15 0;
#X connect 50 0 48 0;
#X connect 51 0 49 0;
